<?xml version="1.0"?>
<svg xmlns="http://www.w3.org/2000/svg" viewBox="0 0 50 50" enable-background="new 0 0 50 50">
    <path style="text-indent:0;text-align:start;line-height:normal;text-transform:none;block-progression:tb;-inkscape-font-specification:Bitstream Vera Sans" d="M 13.5 2 C 11.2644 2 9.1952739 3.2181634 8.21875 5.25 C 8.2120767 5.263885 8.1940706 5.2672875 8.1875 5.28125 L 4.90625 11.53125 A 1.0064489 1.0064489 0 0 0 4.875 11.65625 C 4.8681943 11.668549 4.8504837 11.675157 4.84375 11.6875 A 1.0064489 1.0064489 0 0 0 4.84375 11.71875 C 4.311438 12.704229 4 13.808627 4 15 L 4 41 C 4 44.845455 7.1545455 48 11 48 L 39 48 C 42.845455 48 46 44.845455 46 41 L 46 15 C 46 13.823852 45.707206 12.726395 45.1875 11.75 A 1.0064489 1.0064489 0 0 0 45.09375 11.4375 L 41.78125 5.15625 C 41.77775 5.14917 41.78485 5.132056 41.78125 5.125 L 41.75 5.125 C 40.762934 3.1915045 38.735156 2 36.5 2 L 13.5 2 z M 13.5 4 L 36.5 4 C 38.049123 4 39.378885 4.8202709 40 6.0625 L 41.21875 8.375 C 40.51724 8.1368011 39.778609 8 39 8 L 11 8 C 10.245187 8 9.526692 8.119301 8.84375 8.34375 L 10 6.15625 A 1.0001 1.0001 0 0 0 10 6.125 C 10.631933 4.7821428 11.950877 4 13.5 4 z M 25.59375 4.96875 C 24.86875 4.96875 24.14375 5.0375 23.59375 5.1875 C 22.69375 5.4875 22.59375 5.8 22.59375 6 C 22.59375 6.2 22.69375 6.6125 23.59375 6.8125 C 24.19375 6.9125 24.89375 7 25.59375 7 C 26.39375 7 27.09375 6.9125 27.59375 6.8125 C 28.49375 6.5125 28.59375 6.2 28.59375 6 C 28.59375 5.8 28.49375 5.3875 27.59375 5.1875 C 27.04375 5.0375 26.31875 4.96875 25.59375 4.96875 z M 11 10 L 39 10 C 41.754545 10 44 12.245455 44 15 L 44 41 C 44 43.754545 41.754545 46 39 46 L 11 46 C 8.2454545 46 6 43.754545 6 41 L 6 15 C 6 12.245455 8.2454545 10 11 10 z M 34 16 C 32.343146 16 31 17.343146 31 19 C 31 20.656854 32.343146 22 34 22 C 35.656854 22 37 20.656854 37 19 C 37 17.343146 35.656854 16 34 16 z M 25 25 C 23.343146 25 22 26.343146 22 28 C 22 29.656854 23.343146 31 25 31 C 26.656854 31 28 29.656854 28 28 C 28 26.343146 26.656854 25 25 25 z M 16 34 C 14.343146 34 13 35.343146 13 37 C 13 38.656854 14.343146 40 16 40 C 17.656854 40 19 38.656854 19 37 C 19 35.343146 17.656854 34 16 34 z" overflow="visible" enable-background="accumulate" font-family="Bitstream Vera Sans"/>
</svg>
